<svg version="1.0" xmlns="http://www.w3.org/2000/svg" width="55" height="55" viewBox="0 0 539 422"><path d="M201.6 27.6C171 39.4 144.1 58.3 123.8 82c-57.9 67.6-63.4 162.9-13.9 236.8 13.2 19.7 34.5 40.6 54.7 53.8 15.1 9.9 45.4 23.8 46.9 21.5.7-1.2-1.4-2.6-6-4.1-2.2-.7-9.4-3.8-16.1-7-60.1-29-100.9-86.1-108.5-151.9-1.8-16.4-.7-44.8 2.5-59.6C96 111.9 135.2 61.8 189.4 36c6.6-3.2 14-6.4 16.4-7.1 4.3-1.2 7-3.3 5.5-4.2-.5-.3-4.8 1-9.7 2.9zM331.5 24.9c-.7 1.2 1.4 2.6 6 4.1 8.3 2.6 26.8 12.1 37.7 19.3 46.4 30.8 75.1 74.2 85.5 129.2.8 4.4 1.7 16.3 2 26.5.6 20.4-.7 33.3-5.2 51.8C443.3 314.4 399.3 365 343 387.6c-10.4 4.1-12.3 5.2-11.4 6.5.6 1 7.8-1.6 21.4-7.6 39.4-17.4 75.1-52.4 94.5-92.7 26.1-54.3 25.4-117.7-1.8-172.3-8.2-16.5-19.3-32-33.7-46.9-16-16.6-32.4-28.8-51.5-38.4-14.9-7.5-28.1-12.6-29-11.3z"/><path d="M200.9 37.4C164.7 52 134 77.9 113.5 111.1c-19.7 31.8-30 71-28 106.4 2.5 44 17.3 80.9 46.1 114.8 13.5 15.9 35.4 32.7 56.3 43.1 8.2 4.2 23.8 10.6 25.5 10.6.1 0 .2-1.9.2-4.2l-.1-4.3-10.7-4.6c-85.4-37.2-127.8-130.7-99.2-219 3.9-12.1 13.6-32 20.8-42.6 11.8-17.5 29.3-35.4 46.6-47.5 8.8-6.2 24.8-14.9 34.5-18.8l8.1-3.2v-4.4c0-2.4-.5-4.4-1.1-4.4-.5.1-5.8 2-11.6 4.4zM329.4 37.5v4.4l5.6 2.2c34.2 13.6 62.9 36.7 83.1 66.8 20.4 30.4 30 62.2 29.9 99.6 0 35.3-9.2 65.7-28.8 96-19.7 30.4-51.6 56.2-85.2 68.9-4.5 1.7-4.6 1.8-4.6 6.2 0 2.4.2 4.4.4 4.4 1.4 0 19.5-7.6 26.7-11.3 43.4-21.8 77.3-61.7 92.3-108.8 15.7-49.1 9.9-104-15.8-148.8-7.2-12.6-13.8-21.6-23.3-31.9-20.1-21.7-42.9-37.9-66-47-15.3-6-14.3-6-14.3-.7z"/><path d="M206.5 51.9C185.1 60.7 167.8 72.2 151 89c-32.7 32.7-50 73.8-50 119.5 0 17.1 1.3 28.6 5 43 11.4 45.3 42.6 85.5 83.7 107.7 15.3 8.3 31.6 14.2 28.4 10.4-.6-.8-3.3-2.1-5.9-3.1-9.3-3.5-28.1-13.6-37-20.1-36.4-25.9-60.8-64.6-68.8-108.9-2.8-15.3-2.6-43.4.4-58.3 4.8-23.8 14.9-47.8 27.9-66.2 9.5-13.4 29.2-32.8 42.4-41.7 10.8-7.3 24.5-14.6 33.4-17.8 2.8-1 5.8-2.5 6.8-3.4 1.6-1.6 1.6-1.7-.1-1.8-1-.1-5.8 1.5-10.7 3.6zM325 49.5c.6.7 3.6 2.3 6.8 3.6 50.1 19.9 89 63.7 101.6 114.4 4 16.2 5 25 5 43 0 18.3-1.4 28.5-6 44.9-10.5 37.4-35.9 71.9-69.4 94.3-7.8 5.3-24.1 13.7-32.2 16.8-5.9 2.2-8.3 4.5-4.1 4 3.8-.5 11.4-3.5 22-8.9 32.5-16.3 59.1-43.1 75.5-76.1 9.1-18.1 14.4-35.7 16.9-55.8 1.6-13.8.7-39.4-2-52.9-4.6-23.1-15.2-47.6-28.8-66.8-12.5-17.6-33-36.3-51.7-47.2-14.3-8.4-37-17.4-33.6-13.3z"/><path d="M146 178.2v26.3l44.8 15.5 44.7 15.5-44.7.3-44.8.2v30h119l-.2-26.1-.3-26.2-43.2-15.1c-23.7-8.3-43.5-15.4-43.9-15.9-.4-.4 19.1-.7 43.4-.7H265v-30H146v26.2zM277 209v57h30V152h-30v57zM316 167v15h50v84h30V152h-80v15z"/></svg>